<svg xmlns="http://www.w3.org/2000/svg" viewBox="0 0 308.5 109.93"><defs><style>.cls-1,.cls-2{fill:#231815;}.cls-1,.cls-2,.cls-4{stroke:#fff;}.cls-1{stroke-miterlimit:10;}.cls-2,.cls-3,.cls-4{stroke-linejoin:round;}.cls-3,.cls-4{fill:none;}.cls-3{stroke:#032032;stroke-width:11.5px;}.cls-4{stroke-width:5px;}.cls-5{fill:#032032;}</style></defs><title>アセット 1</title><g id="レイヤー_2" data-name="レイヤー 2"><g id="レイヤー_1-2" data-name="レイヤー 1"><polygon class="cls-1" points="50.53 36 37.04 36 41.98 5.75 55.48 5.75 50.53 36"/><polygon class="cls-1" points="75.37 36 61.88 36 66.82 5.75 80.32 5.75 75.37 36"/><polygon class="cls-1" points="290.96 77.85 277.47 77.85 289.25 5.75 302.75 5.75 290.96 77.85"/><polygon class="cls-1" points="286.66 104.18 273.17 104.18 275.59 89.35 289.08 89.35 286.66 104.18"/><polygon class="cls-1" points="148.25 56.55 137.23 56.55 118.55 56.55 126.85 5.75 113.35 5.75 105.05 56.55 102.63 71.37 97.26 104.18 110.76 104.18 116.12 71.37 134.8 71.37 129.44 104.18 142.94 104.18 150.72 56.55 148.25 56.55"/><path class="cls-1" d="M205.33,56.54h-43.2L159.7,71.37l-2.93,18-2.43,14.83h48.23l7.78-47.64ZM170.26,89.35l2.94-18h21.23l-2.94,18Z"/><path class="cls-1" d="M264.74,56.54h-43.2l-2.42,14.83-2.94,18-2.43,14.83H262l7.78-47.64ZM229.67,89.35l2.94-18h21.23l-2.93,18Z"/><path class="cls-2" d="M94.73,50.92S97.22,36,97.22,36c-57,33.62-80.33,0-80.33,0s-2.41,14.91-2.41,14.92L8.17,89.35,5.75,104.18H86.07L88.5,89.35ZM75,89.35H21.67l4.7-28.76c10.34,5.46,27.78,9.16,53.68-2.13Z"/><polygon class="cls-3" points="50.53 36 37.04 36 41.98 5.75 55.48 5.75 50.53 36"/><polygon class="cls-3" points="75.37 36 61.88 36 66.82 5.75 80.32 5.75 75.37 36"/><polygon class="cls-3" points="290.96 77.85 277.47 77.85 289.25 5.75 302.75 5.75 290.96 77.85"/><polygon class="cls-3" points="286.66 104.18 273.17 104.18 275.59 89.35 289.08 89.35 286.66 104.18"/><polygon class="cls-3" points="148.25 56.55 137.23 56.55 118.55 56.55 126.85 5.75 113.35 5.75 105.05 56.55 102.63 71.37 97.26 104.18 110.76 104.18 116.12 71.37 134.8 71.37 129.44 104.18 142.94 104.18 150.72 56.55 148.25 56.55"/><path class="cls-3" d="M205.33,56.54h-43.2L159.7,71.37l-2.93,18-2.43,14.83h48.23l7.78-47.64ZM170.26,89.35l2.94-18h21.23l-2.94,18Z"/><path class="cls-3" d="M264.74,56.54h-43.2l-2.42,14.83-2.94,18-2.43,14.83H262l7.78-47.64ZM229.67,89.35l2.94-18h21.23l-2.93,18Z"/><path class="cls-3" d="M94.73,50.92S97.22,36,97.22,36c-57,33.62-80.33,0-80.33,0s-2.41,14.91-2.41,14.92L8.17,89.35,5.75,104.18H86.07L88.5,89.35ZM75,89.35H21.67l4.7-28.76c10.34,5.46,27.78,9.16,53.68-2.13Z"/><polygon class="cls-4" points="50.53 36 37.04 36 41.98 5.75 55.48 5.75 50.53 36"/><polygon class="cls-4" points="75.37 36 61.88 36 66.82 5.75 80.32 5.75 75.37 36"/><polygon class="cls-4" points="290.96 77.85 277.47 77.85 289.25 5.75 302.75 5.75 290.96 77.85"/><polygon class="cls-4" points="286.66 104.18 273.17 104.18 275.59 89.35 289.08 89.35 286.66 104.18"/><polygon class="cls-4" points="148.25 56.55 137.23 56.55 118.55 56.55 126.85 5.75 113.35 5.75 105.05 56.55 102.63 71.37 97.26 104.18 110.76 104.18 116.12 71.37 134.8 71.37 129.44 104.18 142.94 104.18 150.72 56.55 148.25 56.55"/><path class="cls-4" d="M205.33,56.54h-43.2L159.7,71.37l-2.93,18-2.43,14.83h48.23l7.78-47.64ZM170.26,89.35l2.94-18h21.23l-2.94,18Z"/><path class="cls-4" d="M264.74,56.54h-43.2l-2.42,14.83-2.94,18-2.43,14.83H262l7.78-47.64ZM229.67,89.35l2.94-18h21.23l-2.93,18Z"/><path class="cls-4" d="M94.73,50.92S97.22,36,97.22,36c-57,33.62-80.33,0-80.33,0s-2.41,14.91-2.41,14.92L8.17,89.35,5.75,104.18H86.07L88.5,89.35ZM75,89.35H21.67l4.7-28.76c10.34,5.46,27.78,9.16,53.68-2.13Z"/><polygon class="cls-5" points="50.53 36 37.04 36 41.98 5.75 55.48 5.75 50.53 36"/><polygon class="cls-5" points="75.37 36 61.88 36 66.82 5.75 80.32 5.75 75.37 36"/><polygon class="cls-5" points="290.96 77.85 277.47 77.85 289.25 5.75 302.75 5.75 290.96 77.85"/><polygon class="cls-5" points="286.66 104.18 273.17 104.18 275.59 89.35 289.08 89.35 286.66 104.18"/><polygon class="cls-5" points="148.25 56.55 137.23 56.55 118.55 56.55 126.85 5.75 113.35 5.75 105.05 56.55 102.63 71.37 97.26 104.18 110.76 104.18 116.12 71.37 134.8 71.37 129.44 104.18 142.94 104.18 150.72 56.55 148.25 56.55"/><path class="cls-5" d="M205.33,56.54h-43.2L159.7,71.37l-2.93,18-2.43,14.83h48.23l7.78-47.64ZM170.26,89.35l2.94-18h21.23l-2.94,18Z"/><path class="cls-5" d="M264.74,56.54h-43.2l-2.42,14.83-2.94,18-2.43,14.83H262l7.78-47.64ZM229.67,89.35l2.94-18h21.23l-2.93,18Z"/><path class="cls-5" d="M94.73,50.92S97.22,36,97.22,36c-57,33.62-80.33,0-80.33,0s-2.41,14.91-2.41,14.92L8.17,89.35,5.75,104.18H86.07L88.5,89.35ZM75,89.35H21.67l4.7-28.76c10.34,5.46,27.78,9.16,53.68-2.13Z"/></g></g></svg>